<svg xmlns="http://www.w3.org/2000/svg" width="48" height="48" viewBox="0 0 48 48"><title>assets</title><rect width="48" height="48" fill="none"/><path d="M15.436,20.429A8.332,8.332,0,0,1,13.3,20.15a8.862,8.862,0,0,1-3.755-2.057,7.465,7.465,0,0,1-1.361-1.672,1.076,1.076,0,0,1-.182-.6,1.094,1.094,0,0,1,.086-.428,1.045,1.045,0,0,1,.241-.354A1.166,1.166,0,0,1,8.68,14.8a1.047,1.047,0,0,1,.424-.086,1.028,1.028,0,0,1,.535.139,1.308,1.308,0,0,1,.407.386,7.128,7.128,0,0,0,2.363,2.218,6.362,6.362,0,0,0,3.166.76,5.938,5.938,0,0,0,3.07-.8,7.3,7.3,0,0,0,2.309-2.18,1.392,1.392,0,0,1,.38-.381.926.926,0,0,1,.52-.144,1.172,1.172,0,0,1,.814.3,1.031,1.031,0,0,1,.332.8.947.947,0,0,1-.043.295,1.237,1.237,0,0,1-.128.273,4.8,4.8,0,0,1-.617.879q-.359.407-.744.782a8.493,8.493,0,0,1-2.786,1.773,8.856,8.856,0,0,1-3.246.606M13.25,9.757a1.675,1.675,0,0,1-.139.675,1.861,1.861,0,0,1-.375.563,1.761,1.761,0,0,1-.552.38,1.735,1.735,0,0,1-1.361,0,1.779,1.779,0,0,1-.927-.927,1.681,1.681,0,0,1-.139-.68,1.765,1.765,0,0,1,1.055-1.629,1.735,1.735,0,0,1,1.361,0,1.83,1.83,0,0,1,.938.938,1.661,1.661,0,0,1,.139.68m4.5,0a1.707,1.707,0,0,1,.139-.686,1.752,1.752,0,0,1,.932-.932A1.707,1.707,0,0,1,19.507,8a1.669,1.669,0,0,1,.681.139,1.754,1.754,0,0,1,.551.381,1.772,1.772,0,0,1,.37.557,1.726,1.726,0,0,1,.134.68,1.678,1.678,0,0,1-.139.68,1.875,1.875,0,0,1-.375.558,1.784,1.784,0,0,1-.552.38,1.735,1.735,0,0,1-1.361,0,1.761,1.761,0,0,1-.552-.38,1.875,1.875,0,0,1-.375-.558A1.661,1.661,0,0,1,17.75,9.757Z" fill="#404040"/><path d="M32.2,18.375l1.114,1.114L32.2,20.6l-1.114-1.114L32.2,18.375m3.341,3.342-1.113,1.114-1.114-1.114L34.431,20.6l1.113,1.114m0,4.455a1.54,1.54,0,0,1,.349.522,1.607,1.607,0,0,1,0,1.184,1.54,1.54,0,0,1-.349.522L24.406,39.539a1.551,1.551,0,0,1-.522.348,1.607,1.607,0,0,1-1.184,0,1.551,1.551,0,0,1-.522-.348l-7.8-7.8a1.522,1.522,0,0,1-.348-.522,1.607,1.607,0,0,1,0-1.184,1.522,1.522,0,0,1,.348-.522L25.52,18.375a1.5,1.5,0,0,1,.522-.348,1.6,1.6,0,0,1,1.183,0,1.5,1.5,0,0,1,.522.348L32.2,13.92l7.8,7.8-4.456,4.455m-6.683-6.683,5.57,5.569,3.341-3.341L32.2,16.147l-3.342,3.342m5.57,7.8-7.8-7.8L15.5,30.628l7.8,7.8Z" fill="#404040"/></svg>