<svg xmlns="http://www.w3.org/2000/svg" viewBox="0 0 16 20" x="0px" y="0px"><title>instant photo</title><g><path d="M14.5,16H1.5a.5.5,0,0,1-.5-.5V.5A.5.5,0,0,1,1.5,0h13a.5.5,0,0,1,.5.5v15A.5.5,0,0,1,14.5,16ZM2,15H14V1H2Z"/><path d="M14.5,13H1.5a.5.5,0,0,1,0-1h13a.5.5,0,0,1,0,1Z"/><path d="M11.5,11h-7a.5.5,0,0,1-.5-.5v-.269A2,2,0,0,1,5.61,8.27l.908-.181V8.007a4.676,4.676,0,0,1-.258-.463,3.17,3.17,0,0,0-.2-.361,2.236,2.236,0,0,1-.7-1.127,1.22,1.22,0,0,1,.09-.867l0-.162a3.779,3.779,0,0,1,.1-1.248A2.753,2.753,0,0,1,7.981,2.1a2.466,2.466,0,0,1,1.2.313c.021.008.108.022.166.032a1.167,1.167,0,0,1,.706.307A1.6,1.6,0,0,1,10.436,3.9a5.582,5.582,0,0,1,.112,1.288,1.231,1.231,0,0,1,.09.868,2.252,2.252,0,0,1-.711,1.137,3.7,3.7,0,0,0-.188.35,4.908,4.908,0,0,1-.257.464v.083l.908.181A2,2,0,0,1,12,10.231V10.5A.5.5,0,0,1,11.5,11ZM5.027,10h5.945a1,1,0,0,0-.778-.75L8.884,8.99a.5.5,0,0,1-.4-.49V7.836a.5.5,0,0,1,.149-.357,3.492,3.492,0,0,0,.215-.389,2.414,2.414,0,0,1,.382-.614,1.389,1.389,0,0,0,.431-.622c.031-.149.018-.175-.009-.228a.793.793,0,0,1-.1-.375,5.074,5.074,0,0,0-.092-1.141.515.515,0,0,1-.02-.134c0-.42-.069-.49-.121-.546.022.028-.074.012-.138,0a1.471,1.471,0,0,1-.484-.144A1.441,1.441,0,0,0,7.987,3.1a1.734,1.734,0,0,0-1.5,1.02,4.088,4.088,0,0,0-.041.888l0,.245a.793.793,0,0,1-.1.375c-.027.053-.04.08-.01.228a1.4,1.4,0,0,0,.432.622,2.421,2.421,0,0,1,.383.612,3.41,3.41,0,0,0,.222.4.583.583,0,0,1,.146.352V8.5a.5.5,0,0,1-.4.49l-1.311.26A1,1,0,0,0,5.027,10Z"/></g></svg>